PathFileType	4	(X/Y/Z)	/Volumes/GoogleDrive/My Drive/Research/Stanford/Projects/Digital Athlete Project/Sprinting/Sprint Simulation/sprinter/subjects/JA1/experimental_data/TRC/run0500cms.trc
DataRate	CameraRate	NumFrames	NumMarkers	Units	OrigDataRate	OrigDataStartFrame	OrigNumFrames
250.000000	250.000000	4	53	mm	250.000000	427	569
Frame#	Time	C7			RSH			LSH			MAN			T7			LARM			LELB			LFOREARM			LWR			RARM			RELB			RFOREARM			RWR			RASI			LASI			SACR			P1			P2			P3			LTHLP			LTHLD			LTHAP			LLEPI			LPAT			LTIAP			LTIAD			LTILAT			LLMAL			LHEEL			LMFS			LMFL			LP1MT			LTOE			LP5MT			RTHLP			RTHLD			RTHAP			RTHAD			RLEPI			RPAT			RTIAP			RTIAD			RTILAT			RLMAL			RHEEL			RMFS			RMFL			RP1MT			RTOE			RP5MT			LTHAD			x52			x53			
		X1	Y1	Z1	X2	Y2	Z2	X3	Y3	Z3	X4	Y4	Z4	X5	Y5	Z5	X6	Y6	Z6	X7	Y7	Z7	X8	Y8	Z8	X9	Y9	Z9	X10	Y10	Z10	X11	Y11	Z11	X12	Y12	Z12	X13	Y13	Z13	X14	Y14	Z14	X15	Y15	Z15	X16	Y16	Z16	X17	Y17	Z17	X18	Y18	Z18	X19	Y19	Z19	X20	Y20	Z20	X21	Y21	Z21	X22	Y22	Z22	X23	Y23	Z23	X24	Y24	Z24	X25	Y25	Z25	X26	Y26	Z26	X27	Y27	Z27	X28	Y28	Z28	X29	Y29	Z29	X30	Y30	Z30	X31	Y31	Z31	X32	Y32	Z32	X33	Y33	Z33	X34	Y34	Z34	X35	Y35	Z35	X36	Y36	Z36	X37	Y37	Z37	X38	Y38	Z38	X39	Y39	Z39	X40	Y40	Z40	X41	Y41	Z41	X42	Y42	Z42	X43	Y43	Z43	X44	Y44	Z44	X45	Y45	Z45	X46	Y46	Z46	X47	Y47	Z47	X48	Y48	Z48	X49	Y49	Z49	X50	Y50	Z50	X51	Y51	Z51	X52	Y52	Z52	X53	Y53	Z53	
427	1.708000	3283.044678	1517.146729	204.264450	3335.516846	1511.228027	356.434296	3275.649414	1503.615845	45.303349	3416.616455	1422.151123	177.729813	3217.705078	1330.738403	216.759857	3148.988281	1375.620972	-33.958221	3046.729492	1282.038086	-57.294495	3075.124756	1132.978516	-60.948364	3084.266846	1001.594788	-56.386112	3345.139404	1347.524658	472.290497	3348.497559	1219.824707	534.136353	3452.854980	1269.896484	455.120636	3543.899170	1317.994873	386.768799	3414.017822	1031.926758	301.721436	3387.410889	1046.302002	91.683075	3221.476562	1088.594360	217.962509	3205.186768	1058.104492	167.130966	3216.560791	1060.997437	273.183289	3184.391113	1003.806335	221.228928	3411.613525	749.682251	26.959988	3481.580811	661.689758	49.469093	3526.702393	810.608704	102.334000	3552.226318	571.262573	81.470848	3632.298828	618.064331	142.761353	3633.885010	425.147217	166.649536	3668.224609	291.162140	181.101822	3608.015625	337.944427	101.394470	3677.668701	131.909409	149.061356	3627.065674	95.171021	207.498367	3785.528320	153.070297	191.537628	3760.783447	105.516449	140.913544	3856.027588	122.049294	231.755280	3877.158691	139.960007	188.142410	3829.198486	71.598579	120.450554	3253.235840	773.767395	383.757141	3223.127686	665.690063	364.309204	3354.885742	715.025208	297.617157	3315.132080	622.761292	282.457214	3158.001953	540.811462	324.310699	3214.543213	470.922668	271.360809	2947.678711	502.426300	244.542175	2821.296387	517.403992	228.204086	2936.961426	558.968506	315.091125	2705.217529	559.602356	282.929138	2689.021484	617.966614	215.566681	2678.695557	449.061798	264.741150	2652.810059	508.893860	303.099884	2614.658203	393.620239	232.410782	2626.927979	378.424622	280.093109	2595.308105	455.006927	341.564301	3574.531006	718.550903	118.232010	3594.814453	1344.893188	348.544037	3088.913330	934.818970	-54.067348
428	1.712000	3303.566895	1516.276489	203.552704	3356.145752	1508.976929	356.522644	3297.020508	1500.696899	44.307175	3437.611084	1419.822876	177.925583	3238.190186	1328.889282	216.620728	3171.789307	1371.136230	-35.491680	3070.655273	1276.558228	-59.718510	3101.544434	1128.242188	-62.502907	3113.081787	996.957642	-57.376244	3363.091553	1344.929565	472.178406	3364.198975	1217.300537	533.837036	3471.516846	1262.908813	455.913879	3565.226562	1307.004883	388.080688	3434.729736	1030.719238	301.810913	3407.533936	1044.342773	91.796356	3241.844482	1086.238892	218.491379	3225.555420	1055.765503	167.448456	3236.841553	1058.654663	273.967987	3205.062012	1001.333679	221.802246	3431.479004	748.171448	27.925220	3500.269043	659.642212	50.247940	3546.749268	807.984131	102.282928	3569.488525	567.606384	81.655411	3650.202148	614.993042	141.408127	3649.536865	420.433563	167.074295	3681.905273	285.958527	181.962875	3621.664307	333.413666	102.887131	3688.243408	126.379066	150.768173	3637.695312	91.171875	210.159775	3797.040283	146.236572	191.689835	3771.038330	98.248146	141.868011	3867.683105	114.441696	231.428909	3888.168213	131.544189	187.165283	3838.402344	63.111755	121.003700	3277.562988	770.558899	384.050842	3249.344971	661.880005	364.817047	3379.818115	713.425964	297.575531	3341.851807	620.336487	282.859528	3186.729980	536.157104	324.837860	3243.206787	466.347443	271.682434	2976.044434	503.893829	243.522766	2850.999268	521.902893	229.672440	2967.319824	559.726501	314.635529	2736.159424	568.335205	282.645660	2721.100098	626.545105	214.852509	2706.429688	458.323547	265.838715	2682.841553	519.786438	304.301910	2640.707031	404.569183	236.091003	2653.270996	389.725372	283.767181	2624.434082	468.328857	344.351349	3593.233887	716.226013	117.977097	3617.632324	1331.665039	350.145966	3118.945557	930.232300	-54.770618
429	1.716000	3324.517090	1513.928223	202.869690	3376.899658	1506.370483	356.733704	3318.677979	1496.989746	43.494717	3458.318848	1417.294800	178.040344	3258.620117	1326.866211	216.540070	3194.618652	1366.422852	-37.305149	3094.844727	1270.864136	-62.330803	3127.925293	1123.058350	-64.250160	3142.189209	992.059875	-58.512016	3381.042480	1342.111328	472.104492	3379.776123	1214.690674	533.416565	3489.968506	1255.565430	456.825073	3586.266846	1295.419678	389.676270	3455.374512	1029.300415	301.880127	3427.598633	1042.308105	91.834206	3262.549072	1083.643799	218.501236	3246.023682	1053.214355	167.768433	3257.242188	1056.303711	274.625610	3225.479004	998.704529	222.553116	3451.206055	746.893127	29.284546	3518.483154	657.483704	51.265686	3566.529297	806.238403	101.885391	3586.789307	564.110535	81.818993	3668.576660	611.515076	139.999817	3664.974854	415.587585	167.506195	3694.912842	280.558258	182.843323	3634.766602	328.869690	104.301300	3697.466797	120.598274	152.477921	3646.932373	86.818878	212.565506	3806.987549	138.944550	191.935226	3779.516357	90.961372	143.070953	3877.572266	106.246307	231.248367	3897.797852	122.596329	186.386520	3845.976562	54.416851	121.702713	3302.039062	767.176819	384.494507	3275.930176	657.685059	365.263428	3404.496094	711.656860	297.378723	3368.520508	617.856628	283.140686	3215.800293	531.392212	325.394928	3272.265625	461.954681	272.255249	3005.507568	504.773224	244.283859	2880.753418	526.525452	229.599503	2998.122559	560.692017	315.107391	2767.751465	576.970459	283.020142	2753.652344	634.570618	214.553238	2735.477539	467.675079	267.744598	2713.634033	529.995422	305.471710	2667.787598	414.892120	239.526062	2680.358887	400.395386	287.261658	2654.387207	480.736603	346.988617	3612.149170	714.193542	117.524719	3640.120117	1317.707642	352.124268	3149.438721	925.479858	-55.595604
430	1.720000	3345.548828	1511.385010	202.379013	3397.707520	1503.072021	357.100189	3339.757568	1494.119263	42.359093	3479.190430	1414.605591	178.289581	3279.122803	1324.663940	216.282425	3217.515381	1361.322754	-39.221733	3119.170166	1264.713989	-64.913918	3155.132812	1117.673950	-66.047394	3171.774902	986.967651	-59.692966	3398.769531	1338.993164	472.033081	3395.204346	1211.898438	533.022034	3508.194580	1247.759766	457.897644	3606.981934	1283.166504	391.494812	3475.983643	1027.696655	301.884521	3447.548096	1040.147461	91.822121	3283.058594	1080.757446	218.668137	3266.081055	1050.614014	168.373611	3277.712402	1053.744873	275.006256	3245.938721	996.044739	223.249008	3470.823975	745.653259	30.702126	3537.830078	655.606140	52.572865	3586.236572	805.082581	101.417656	3604.189209	560.769470	82.071259	3687.064453	607.754822	138.600082	3680.026367	410.648590	167.971512	3706.942627	275.118805	183.854889	3647.378174	324.319550	105.579277	3705.500244	114.713776	154.180954	3655.052002	82.296135	215.267365	3815.728516	131.312683	192.543411	3786.555664	83.900749	144.391418	3885.889648	97.559776	231.330231	3906.029297	113.337975	186.307129	3852.332520	45.572876	122.738556	3326.522461	763.551758	385.037231	3302.223145	653.970703	366.006012	3429.477783	709.776550	297.319122	3395.393311	615.245850	283.564850	3245.223389	526.503906	326.011749	3301.693359	457.463074	272.885498	3035.543945	505.332062	244.991501	2911.374512	530.317932	230.736053	3029.329102	561.398926	315.586609	2799.944336	584.851929	283.387421	2786.818604	641.939026	214.251175	2764.540039	475.588074	269.020172	2745.171143	539.453003	306.663605	2695.704834	424.693237	242.694916	2708.512207	410.443298	290.470581	2685.278076	492.213562	349.507172	3631.095703	712.364380	116.799561	3662.227295	1302.967163	354.359985	3180.233154	920.536194	-56.463326
